<mxfile host="app.diagrams.net" modified="2021-07-11T16:42:03.763Z" agent="5.0 (Windows NT 10.0; Win64; x64) AppleWebKit/537.36 (KHTML, like Gecko) Chrome/91.0.4472.124 Safari/537.36 Edg/91.0.864.67" etag="0ZdsXXc36tsxWQNEtXtP" version="14.8.2" type="github">
  <diagram id="ACsO4PtH4u77ZyFlAyIJ" name="Page-1">
    <mxGraphModel dx="1422" dy="762" grid="1" gridSize="10" guides="1" tooltips="1" connect="1" arrows="1" fold="1" page="1" pageScale="1" pageWidth="850" pageHeight="1100" math="0" shadow="0">
      <root>
        <mxCell id="0" />
        <mxCell id="1" parent="0" />
        <mxCell id="KfbwXmbYt9m3trSIUsVV-17" style="edgeStyle=orthogonalEdgeStyle;curved=1;rounded=0;orthogonalLoop=1;jettySize=auto;html=1;" edge="1" parent="1" source="KfbwXmbYt9m3trSIUsVV-1">
          <mxGeometry relative="1" as="geometry">
            <mxPoint x="180" y="390" as="targetPoint" />
          </mxGeometry>
        </mxCell>
        <mxCell id="KfbwXmbYt9m3trSIUsVV-18" style="edgeStyle=orthogonalEdgeStyle;curved=1;rounded=0;orthogonalLoop=1;jettySize=auto;html=1;" edge="1" parent="1" source="KfbwXmbYt9m3trSIUsVV-1">
          <mxGeometry relative="1" as="geometry">
            <mxPoint x="570" y="390" as="targetPoint" />
          </mxGeometry>
        </mxCell>
        <mxCell id="KfbwXmbYt9m3trSIUsVV-1" value="front&amp;nbsp;&lt;br&gt;banglapress.xyz" style="whiteSpace=wrap;html=1;aspect=fixed;" vertex="1" parent="1">
          <mxGeometry x="270" y="110" width="200" height="200" as="geometry" />
        </mxCell>
        <mxCell id="KfbwXmbYt9m3trSIUsVV-19" style="edgeStyle=orthogonalEdgeStyle;curved=1;rounded=0;orthogonalLoop=1;jettySize=auto;html=1;" edge="1" parent="1" source="KfbwXmbYt9m3trSIUsVV-2">
          <mxGeometry relative="1" as="geometry">
            <mxPoint x="100" y="660" as="targetPoint" />
          </mxGeometry>
        </mxCell>
        <mxCell id="KfbwXmbYt9m3trSIUsVV-20" style="edgeStyle=orthogonalEdgeStyle;curved=1;rounded=0;orthogonalLoop=1;jettySize=auto;html=1;" edge="1" parent="1" source="KfbwXmbYt9m3trSIUsVV-2">
          <mxGeometry relative="1" as="geometry">
            <mxPoint x="230" y="660" as="targetPoint" />
          </mxGeometry>
        </mxCell>
        <mxCell id="KfbwXmbYt9m3trSIUsVV-2" value="site builder" style="whiteSpace=wrap;html=1;aspect=fixed;" vertex="1" parent="1">
          <mxGeometry x="90" y="400" width="190" height="190" as="geometry" />
        </mxCell>
        <mxCell id="KfbwXmbYt9m3trSIUsVV-21" style="edgeStyle=orthogonalEdgeStyle;curved=1;rounded=0;orthogonalLoop=1;jettySize=auto;html=1;entryX=0.388;entryY=-0.062;entryDx=0;entryDy=0;entryPerimeter=0;" edge="1" parent="1" source="KfbwXmbYt9m3trSIUsVV-3" target="KfbwXmbYt9m3trSIUsVV-11">
          <mxGeometry relative="1" as="geometry" />
        </mxCell>
        <mxCell id="KfbwXmbYt9m3trSIUsVV-22" style="edgeStyle=orthogonalEdgeStyle;curved=1;rounded=0;orthogonalLoop=1;jettySize=auto;html=1;entryX=0.75;entryY=0;entryDx=0;entryDy=0;" edge="1" parent="1" source="KfbwXmbYt9m3trSIUsVV-3" target="KfbwXmbYt9m3trSIUsVV-12">
          <mxGeometry relative="1" as="geometry" />
        </mxCell>
        <mxCell id="KfbwXmbYt9m3trSIUsVV-3" value="ready theme&lt;br&gt;" style="whiteSpace=wrap;html=1;aspect=fixed;" vertex="1" parent="1">
          <mxGeometry x="460" y="400" width="190" height="190" as="geometry" />
        </mxCell>
        <mxCell id="KfbwXmbYt9m3trSIUsVV-7" value="admin" style="whiteSpace=wrap;html=1;aspect=fixed;" vertex="1" parent="1">
          <mxGeometry x="60" y="662.5" width="87.5" height="87.5" as="geometry" />
        </mxCell>
        <mxCell id="KfbwXmbYt9m3trSIUsVV-8" value="front" style="whiteSpace=wrap;html=1;aspect=fixed;" vertex="1" parent="1">
          <mxGeometry x="180" y="662.5" width="85" height="85" as="geometry" />
        </mxCell>
        <mxCell id="KfbwXmbYt9m3trSIUsVV-11" value="admin" style="whiteSpace=wrap;html=1;aspect=fixed;" vertex="1" parent="1">
          <mxGeometry x="440" y="660" width="80" height="80" as="geometry" />
        </mxCell>
        <mxCell id="KfbwXmbYt9m3trSIUsVV-12" value="front" style="whiteSpace=wrap;html=1;aspect=fixed;" vertex="1" parent="1">
          <mxGeometry x="550" y="660" width="80" height="80" as="geometry" />
        </mxCell>
      </root>
    </mxGraphModel>
  </diagram>
</mxfile>
